<?xml version="1.0" standalone="no"?>
<!DOCTYPE svg PUBLIC "-//W3C//DTD SVG 1.1//EN" "http://www.w3.org/Graphics/SVG/1.1/DTD/svg11.dtd" >
<svg xmlns="http://www.w3.org/2000/svg">
<metadata>Generated by IcoMoon</metadata>
<defs>
<font id="Fictionlog_all_icon" horiz-adv-x="1024">
<font-face units-per-em="1024" ascent="960" descent="-64" />
<missing-glyph horiz-adv-x="1024" />
<glyph unicode="&#x20;" horiz-adv-x="512" d="" />
<glyph unicode="&#xe900;" glyph-name="Icon_share_email" d="M535.839 341.238c-6.697-5.55-15.319-8.847-23.88-8.847-8.499 0-17.019 3.277-23.777 8.847l-343.060 280.33v-439.849h733.696v439.849l-342.979-280.33zM511.959 426.168c7.25 0 14.52 2.703 20.193 7.516l290.324 237.199h-620.974l290.284-237.199c5.796-4.833 13.005-7.516 20.173-7.516z" />
<glyph unicode="&#xe901;" glyph-name="Icon_search" d="M822.395 215.101l-115.159 115.159c32.727 46.715 52.060 103.465 52.060 164.925 0 158.618-129.126 287.764-287.969 287.764-158.495 0-287.908-129.147-287.908-287.764 0-158.904 129.413-288.010 287.908-288.010 52.142 0 101.069 14.234 143.483 38.564l119.071-119.071c12.206-12.227 28.262-18.555 44.175-18.555 15.995 0 32.113 6.328 44.319 18.555 24.31 24.351 24.31 64 0.020 88.433zM308.429 495.186c0 89.866 73.216 162.611 162.898 162.611 89.887 0 162.98-72.745 162.98-162.611 0-89.764-73.073-163.082-162.98-163.082-89.682-0.020-162.898 73.298-162.898 163.082z" />
<glyph unicode="&#xe902;" glyph-name="Icon_share" d="M613.929 252.58c-89.866 44.462-179.405 88.822-269.066 133.161-0.778-0.635-1.393-1.065-2.007-1.659-26.993-29.696-60.559-39.526-98.591-28.447-37.929 11.018-60.621 37.704-67.768 76.575-9.441 51.507 29.327 103.014 81.51 109.588 33.28 4.178 61.276-6.062 84.316-30.147 2.068-2.232 3.604-3.052 6.717-1.495 87.962 43.827 176.005 87.552 264.028 131.256 0.184 0.102 0.389 0.266 0.84 0.737-5.98 28.14-1.065 54.436 16.056 78.049 13.394 18.514 31.273 30.638 53.33 36.434 44.155 11.592 90.767-10.486 110.408-52.019 19.476-41.165 6.881-90.624-29.901-117.76-36.393-26.849-92.385-26.972-130.499 15.667-89.272-44.36-178.688-88.76-266.977-132.588 0-15.36 0-29.757 0-45.568 88.371-43.725 178.176-88.187 267.94-132.649 35.041 41.656 92.979 43.233 129.618 16.179 38.339-28.344 50.196-79.155 28.058-121.549-21.791-41.964-70.369-61.44-115.2-46.612-40.202 13.312-74.465 56.955-62.812 112.845z" />
<glyph unicode="&#xe903;" glyph-name="Icon_share_fb" d="M826.593 446.566c0 67.768 0.041 135.352-0.123 203.039 0 6.554-0.369 13.189-1.393 19.579-8.991 53.883-55.071 92.897-109.527 92.938-135.782 0.041-271.503 0.041-407.327-0.041-6.451 0-13.107-0.635-19.456-1.823-54.907-10.67-91.505-55.214-91.505-111.206 0-134.144 0-268.268 0-402.391 0-5.059 0.307-10.179 0.86-15.299 6.328-56.32 53.289-98.57 109.896-98.632 78.5-0.020 157.082 0.123 235.622 0.164 0 85.115 0 169.697 0 255.488-18.063 0-35.369 0-53.125 0 0 29.43 0 57.528 0 87.020 17.162 0 34.693 0 53.125 0 0 23.736-0.328 46.182 0.205 68.69 0.307 11.264 1.147 22.61 3.523 33.526 6.984 30.7 26.788 49.889 56.586 58.593 39.772 11.653 80.445 5.448 121.344 7.27 0-30.413 0-59.331 0-89.928-7.762 0-15.401 0.143-22.999 0-12.513-0.082-25.047 0.143-37.683-0.43-11.53-0.655-17.469-6.164-17.797-17.572-0.594-19.436-0.164-39.117-0.164-59.904 26.399 0 52.306 0 78.848 0-2.458-28.877-5.038-56.689-7.537-85.197-23.572 0-46.674 0-70.881 0 0-86.077 0-171.336 0-257.475 22.897 0 45.814-0.061 68.669 0 11.53 0.041 23.45 2.15 34.427 5.591 45.65 14.316 76.39 57.057 76.431 105.042 0.041 67.686 0 135.332 0 202.957h-0.020z" />
<glyph unicode="&#xe904;" glyph-name="Icon_share_ig" d="M826.409 696.566c-3.932 37.499-34.939 65.556-72.786 65.597-161.157 0-322.376 0-483.574-0.082-4.403 0-8.561-0.328-12.8-1.208-35.697-6.676-59.617-36.25-59.617-72.622 0-80.384 0-160.727 0-241.091 0-80.118-0.43-160.379-0.348-240.558 0-4.076 0.082-8.192 0.635-12.206 4.71-34.918 35.533-61.952 70.82-61.952 162.079 0 324.116 0 486.339 0 2.662 0 5.509 0.225 8.212 0.512 35.615 4.198 63.345 35.308 63.345 71.127 0.082 162.079 0 324.219 0 486.339-0.020 2.048-0.020 4.096-0.225 6.144zM632.996 665.088c0.041 13.906 10.691 24.33 24.556 24.33 23.941 0 47.903 0 71.905 0 13.988 0 24.535-10.527 24.576-24.515 0.164-24.084 0.164-48.067 0-72.069-0.041-13.967-10.65-24.433-24.515-24.474-11.981-0.041-24.064 0-36.127 0-11.919 0-23.777-0.041-35.656 0-14.090 0-24.719 10.322-24.76 24.412-0.123 24.105-0.123 48.169 0.020 72.315zM511.795 568.361c66.908 0 121.078-54.211 121.078-121.119 0.102-66.949-54.088-121.078-120.996-121.078-66.99 0-121.078 54.149-121.18 120.996 0 66.908 54.272 121.16 121.098 121.201zM751.759 492.831c0-87.47 1.188-175.124 1.085-262.717 0-14.623-9.748-25.108-24.453-25.108-144.835-0.041-290.714-0.041-435.507 0-14.664 0-26.071 10.486-26.071 25.231 0 87.47 0 174.92 0 262.41 0 0.942 0-1.29 0 4.997 18.903 0 39.178 0 57.487 0-12.124-50.401-6.861-96.010 16.364-140.206 17.203-32.768 42.271-58.962 74.281-77.619 63.775-36.905 143.38-34.57 204.431 6.513 34.099 22.856 58.675 54.395 73.421 92.774 14.623 38.359 16.63 74.404 6.533 118.518 18.33 0 33.403 0 52.408 0 0.020-6.246 0.020-3.891 0.020-4.792z" />
<glyph unicode="&#xe905;" glyph-name="Icon_share_line" d="M837.796 446.444c0-70.001 0.020-140.083 0-210.207-0.041-49.644-31.805-93.798-79.114-108.728-11.366-3.645-23.695-5.714-35.574-5.796-140.759-0.348-281.518-0.266-422.277-0.205-58.593 0.041-107.254 43.786-113.746 102.072-0.553 5.243-0.881 10.568-0.881 15.831 0 138.854 0 277.709 0 416.563 0 57.958 37.949 104.202 94.761 115.057 6.615 1.352 13.476 1.987 20.173 1.987 140.595 0.102 281.129 0.102 421.724 0.082 56.3-0.082 103.997-40.509 113.275-96.174 1.106-6.656 1.516-13.517 1.516-20.296 0.143-70.042 0.102-140.124 0.102-210.207h0.041zM505.098 674.714c-10.65-1.27-28.672-2.314-46.387-5.612-57.364-10.813-107.438-35.738-144.916-81.572-37.642-46.039-50.156-98.14-31.887-155.566 15.565-49.275 49.275-83.886 93.184-109.158 30.024-17.347 62.444-27.3 96.543-32.317 20.357-3.031 26.030-11.080 22.774-31.437-1.413-8.602-2.99-17.080-4.157-25.846-1.29-9.646 3.809-14.602 13.066-11.715 8.049 2.58 15.933 6.021 23.265 10.076 41.759 23.409 80.998 50.504 118.333 80.343 27.976 22.344 54.108 46.592 74.67 76.145 23.491 33.874 34.591 71.209 29.164 112.476-5.898 45.507-28.406 82.186-62.628 111.821-49.766 42.967-108.851 60.559-181.023 62.362zM510.382 486.154c0-17.797 0.061-35.615 0-53.35 0-9.605-4.055-14.52-12.001-14.561-8.131-0.082-12.759 4.997-12.8 14.766-0.082 29.491 0 58.962 0 88.515 0 6.287 1.434 12.001 8.069 14.5 6.267 2.212 11.612 0 16.404-6.574 13.189-17.92 26.419-35.942 39.465-53.842 1.823-2.478 3.748-4.956 6.943-6.922 0.123 2.191 0.266 4.485 0.266 6.676 0.082 16.077 0 32.195 0.082 48.353 0.041 7.844 4.116 12.37 11.182 12.636 8.356 0.328 12.8-3.4 12.882-11.96 0.266-20.132 0.164-40.325 0.164-60.539 0.082-9.503 0.43-19.046 0.287-28.611-0.061-6.84-0.123-14.008-8.581-16.548-6.574-2.048-11.244 0.348-17.306 8.663-13.906 18.944-27.812 37.847-41.759 56.832-0.553 0.799-1.352 1.577-1.946 2.335-0.451-0.164-0.922-0.287-1.352-0.369zM598.548 477.839c0 14.807-0.082 29.676 0.041 44.524 0.041 10.732 3.441 14.008 14.029 14.090 14.766 0 29.43 0.041 44.012 0 8.008 0 12.677-3.871 13.128-10.67 0.573-7.68-3.564-13.066-11.817-13.517-9.298-0.553-18.76-0.205-27.894 0.246-5.632 0.225-7.598-1.72-7.373-7.25 0.676-16.876-2.683-15.442 15.073-15.606 6.615-0.041 13.189 0.164 19.804-0.082 8.253-0.43 12.431-4.997 12.206-13.066-0.287-7.066-4.69-11.182-12.636-11.182-9.503-0.205-19.087-0.205-28.652 0-3.994 0-5.796-1.29-5.734-5.448 0.348-20.685-2.499-17.080 16.241-17.49 6.431-0.041 12.8 0.225 19.149-0.123 7.803-0.471 11.837-5.161 11.612-12.923-0.287-6.922-4.403-11.039-12.042-11.080-15.688-0.205-31.375-0.205-47.084 0-7.987 0.041-11.96 4.157-12.042 12.411-0.205 15.708 0 31.416 0 47.145h-0.020zM359.383 477.471c0 14.787-0.041 29.716 0 44.524 0.041 9.441 4.239 14.356 12.268 14.438 8.356 0.041 12.636-4.874 12.636-14.684 0.082-23.982 0.205-47.944-0.123-71.987-0.041-6.062 2.089-7.619 7.68-7.414 8.54 0.348 17.039 0.164 25.457 0 8.806-0.123 14.070-4.833 14.152-12.083 0.082-7.27-5.345-12.042-14.070-12.083-14.664-0.041-29.307-0.041-43.93 0.041-9.667 0.041-14.008 4.444-14.049 14.008-0.082 15.094-0.020 30.085-0.020 45.24zM467.354 477.471c0-15.483 0.082-30.966-0.123-46.449 0-8.602-4.321-12.882-12.124-12.8-7.68 0.082-11.715 4.444-11.756 12.677-0.123 30.884-0.123 61.87 0 92.795 0.041 8.315 4.076 12.513 11.653 12.636 8.11 0.123 12.124-3.809 12.227-12.472 0.225-15.483 0.123-30.904 0.123-46.387z" />
<glyph unicode="&#xe906;" glyph-name="Icon_share_twitter" d="M829.747 604.877c0.307-6.758 0.512-13.476 0.512-20.316 0-207.565-158.024-446.935-446.996-446.935-88.74 0-171.295 26.030-240.804 70.574 12.288-1.434 24.801-2.191 37.478-2.191 73.605 0 141.353 25.129 195.092 67.277-68.813 1.249-126.751 46.633-146.801 109.076 9.667-1.843 19.456-2.847 29.635-2.847 14.275 0 28.201 1.966 41.349 5.489-71.864 14.459-125.993 77.988-125.993 154.071 0 0.717 0 1.311 0.020 1.987 21.176-11.735 45.363-18.862 71.209-19.62-42.189 28.16-69.878 76.145-69.878 130.703 0 28.774 7.68 55.788 21.197 78.971 77.517-95.048 193.249-157.512 323.789-164.127-2.662 11.51-4.035 23.491-4.035 35.799 0 86.733 70.287 157.123 157.020 157.123 45.281 0 86.057-19.128 114.749-49.603 35.779 7.004 69.407 20.070 99.717 38.052-11.756-36.659-36.639-67.461-69.018-86.856 31.703 3.768 62.013 12.247 90.173 24.76-21.053-31.498-47.718-59.228-78.418-81.388z" />
<glyph unicode="&#xe907;" glyph-name="Icon_add_new" d="M512 819.732c-206.766 0-374.313-167.588-374.313-374.19 0-206.684 167.547-374.272 374.313-374.272 206.705 0 374.211 167.588 374.211 374.272 0.020 206.623-167.485 374.19-374.211 374.19zM697.098 417.362h-156.897v-157.020c0-15.524-12.677-28.099-28.201-28.099-7.864 0-14.868 3.072-20.009 8.212-5.038 5.059-8.233 12.104-8.233 19.866v157l-156.877 0.020c-7.823 0-14.828 3.113-19.968 8.233-5.1 5.12-8.294 12.206-8.294 19.948 0 15.544 12.636 28.221 28.262 28.221h156.877v156.938c0 15.524 12.575 28.119 28.201 28.119 15.585 0 28.242-12.595 28.242-28.119v-156.918l156.897-0.123c15.565 0.123 28.242-12.554 28.242-28.099 0-15.524-12.677-28.18-28.242-28.18z" />
<glyph unicode="&#xe908;" glyph-name="Icon_add_to_mylibrary" d="M225.751 755.098c0 8.233 6.656 14.889 14.889 14.889h50.442c8.233 0 14.889-6.636 14.889-14.889v-614.646c0-8.233-6.656-14.889-14.889-14.889h-50.442c-8.212 0-14.889 6.636-14.889 14.889v614.646zM821.617 256.43l-84.275 0.061v84.234c0 17.756-14.459 32.195-32.236 32.195-17.756 0-32.236-14.438-32.236-32.195v-84.234h-84.255c-17.777 0-32.256-14.459-32.256-32.236 0-8.602 3.379-16.671 9.482-22.794 6.083-6.083 14.193-9.441 22.774-9.441h84.255v-84.296c0-8.417 3.441-16.671 9.38-22.671 6.042-6.103 14.172-9.462 22.835-9.462 17.797 0 32.236 14.418 32.236 32.133v84.296h84.275c17.797 0 32.276 14.479 32.276 32.236 0.020 17.777-14.438 32.174-32.256 32.174zM459.94 200.069c0 149.094 120.873 269.967 269.967 269.967 25.682 0 50.442-3.83 73.974-10.527v295.588c0 8.233-6.656 14.889-14.868 14.889h-420.332c-8.212 0-14.889-6.636-14.889-14.889v-614.646c0-8.233 6.676-14.889 14.889-14.889h101.888c-6.779 23.695-10.629 48.62-10.629 74.506z" />
<glyph unicode="&#xe909;" glyph-name="Icon_comment" d="M710.267 706.683h-396.288c-49.93 0-92.774-40.858-92.774-92.57v-217.62c0-50.176 42.844-92.672 92.774-92.672h102.134l-24.904-147.722c0-0.020 0-0.020 0-0.020 0-7.066 5.734-12.8 12.8-12.8 3.543 0 6.758 1.434 9.073 3.789v0l192.799 156.754h104.387c24.822 0 47.145 9.994 63.57 25.682l0.102-0.225c0.184 0.328 0.348 0.451 0.532 0.778 3.461 3.256 6.41 7.086 9.277 10.834 0.676 1.024 1.679 1.946 2.417 2.99 2.621 3.83 4.936 8.008 6.861 12.308 0.717 1.167 1.516 2.437 2.191 3.83 1.638 3.953 2.929 8.376 4.076 12.78 0.43 1.638 1.167 3.256 1.516 4.895 1.147 5.55 1.597 11.244 1.72 17.039 0 0.573 0.246 1.167 0.246 1.761v217.62c0.020 51.712-40.612 92.57-92.508 92.57z" />
<glyph unicode="&#xe90a;" glyph-name="Icon_leaf" d="M639.078 726.815c10.691-0.942 21.463-1.946 32.215-2.785 53.043-4.178 105.677-11.387 156.815-26.604 11.551-3.441 22.671-8.643 33.526-14.131 6.083-3.072 5.673-6.758-0.307-9.933-62.751-33.485-106.107-85.217-138.117-147.374-17.654-34.345-33.894-69.448-51.425-103.895-16.302-32.174-35.369-62.505-61.747-87.695-31.58-30.167-69.345-47.063-112.312-52.92-63.181-8.561-123.617 4.362-183.071 24.064-16.794 5.55-16.691 5.693-27.546-8.212-27.976-35.881-52.306-74.035-72.069-115.077-5.222-10.772-12.206-14.623-23.982-12.575-10.957 1.905-20.419 6.984-27.791 15.524-5.612 6.472-6.881 13.251-3.195 21.586 28.365 64.184 70.124 118.743 119.951 167.485 73.974 72.376 159.437 128.492 251.351 174.899 43.028 21.729 87.47 40.612 129.536 59.986-27.464 9.482-177.336-22.917-248.3-54.6-80.261-35.86-149.647-86.221-208.056-154.829-0.655 10.322-1.413 18.698-1.741 27.075-1.884 47.985 5.796 94.044 27.996 137.032 27.832 53.985 71.68 91.034 125.399 117.268 39.997 19.599 82.637 30.966 126.525 37.151 23.675 3.359 47.616 4.936 71.393 7.373 2.048 0.205 4.035 0.758 6.083 1.167 26.317 0.020 52.572 0.020 78.868 0.020z" />
<glyph unicode="&#xe90b;" glyph-name="Icon_lock" d="M331.121 529.244c0 3.584 0 6.246 0 8.909 0 30.659-0.143 61.297 0.061 91.976 0.451 83.866 63.345 158.72 145.736 173.978 99.185 18.35 191.16-42.619 212.357-141.005 2.212-10.629 3.277-21.668 3.482-32.563 0.43-30.659 0.205-61.338 0.205-92.017 0-2.683 0-5.427 0-9.277 11.469 0 22.61 0.225 33.71-0.102 7.7-0.205 15.606-0.164 22.938-2.048 23.613-5.939 40.468-27.648 40.509-52.060 0.205-93.676 0.205-187.372 0-281.108-0.041-28.713-22.651-52.101-51.343-54.067-3.031-0.184-5.98-0.266-9.011-0.266-145.244 0-290.55 0.082-435.835-0.123-21.873-0.020-39.977 7.086-51.18 26.071-4.956 8.212-8.458 18.575-8.52 27.976-0.655 93.921-0.532 187.884-0.246 281.846 0.041 28.631 23.306 52.326 51.732 53.576 12.206 0.532 24.474 0.205 36.639 0.307 2.683 0 5.366 0 8.765 0zM623.043 529.674c0 3.133 0 5.796 0 8.458 0 28.426 0.102 56.812-0.102 85.238-0.061 7.926-0.553 15.933-1.741 23.777-9.318 58.307-70.431 100.659-128.266 89.047-55.747-11.203-91.689-54.784-91.935-111.534-0.041-29.164 0-58.327 0-87.47 0-2.417 0.328-4.813 0.43-7.496 73.974-0.020 147.374-0.020 221.614-0.020zM511.898 237.179c6.984 0 13.947-0.123 20.89 0.020 13.681 0.348 22.241 11.018 20.111 24.556-3.256 20.398-6.185 40.837-9.83 61.092-0.86 5.018 0.266 7.455 4.055 10.486 18.493 14.909 25.149 39.854 17.019 62.034-8.069 21.791-29.041 36.434-52.449 36.352-23.224-0.082-44.196-14.95-51.999-36.925-7.864-21.996-1.229-46.572 17.080-61.317 3.994-3.297 5.018-5.98 4.096-11.141-3.604-20.050-6.472-40.243-9.687-60.355-2.273-13.967 6.39-24.494 20.521-24.781 6.758-0.123 13.455-0.020 20.193-0.020z" />
<glyph unicode="&#xe90c;" glyph-name="Icon_more_option" d="M569.16 182.784c0 31.58-25.641 57.139-57.16 57.139-31.601 0-57.283-25.559-57.283-57.139s25.682-57.18 57.283-57.18c31.519-0.020 57.16 25.6 57.16 57.18zM569.16 452.526c0 31.601-25.641 57.18-57.16 57.18-31.601 0-57.283-25.58-57.283-57.18 0-31.56 25.682-57.16 57.283-57.16 31.519 0 57.16 25.6 57.16 57.16zM569.16 722.268c0 31.601-25.641 57.18-57.16 57.18-31.601 0-57.283-25.58-57.283-57.18 0-31.56 25.682-57.18 57.283-57.18 31.519 0 57.16 25.641 57.16 57.18z" />
<glyph unicode="&#xe90d;" glyph-name="Icon_mylibrary" d="M310.17 170.926c0-13.619-11.059-24.678-24.699-24.678h-70.246c-13.64 0-24.699 11.059-24.699 24.678v551.035c0 13.64 11.059 24.699 24.699 24.699h70.246c13.64 0 24.699-11.059 24.699-24.699v-551.035zM485.478 170.926c0-13.619-11.059-24.678-24.699-24.678h-70.246c-13.64 0-24.699 11.059-24.699 24.678v551.035c0 13.64 11.059 24.699 24.699 24.699h70.246c13.64 0 24.699-11.059 24.699-24.699v-551.035zM660.808 170.926c0-13.619-11.059-24.678-24.699-24.678h-70.246c-13.64 0-24.699 11.059-24.699 24.678v551.035c0 13.64 11.059 24.699 24.699 24.699h70.246c13.64 0 24.699-11.059 24.699-24.699v-551.035zM836.116 170.926c0-13.619-11.059-24.678-24.699-24.678h-70.246c-13.64 0-24.699 11.059-24.699 24.678v551.035c0 13.64 11.059 24.699 24.699 24.699h70.246c13.64 0 24.699-11.059 24.699-24.699v-551.035z" />
<glyph unicode="&#xe90e;" glyph-name="Icon_notifications" d="M611.697 367.247c2.949 0 5.878 1.188 7.25 1.188v-65.413c0-38.605-31.252-71.27-71.127-71.27h-178.176l-107.131-106.906v106.906h-35.451c-38.441 0-71.414 32.686-71.414 71.27v213.791c0 39.772 32.952 71.168 71.414 71.168h135.414v-220.733h249.221zM868.352 695.050v-213.852c0-38.666-31.212-71.434-71.066-71.434h-35.656v-106.742l-106.926 106.742h-249.59v285.286c0 39.67 32.809 71.127 71.414 71.127h320.758c39.854 0.020 71.066-31.457 71.066-71.127z" />
<glyph unicode="&#xe90f;" glyph-name="Icon_photo_upload" d="M790.426 661.238h-373.146c-11.776 41.943-49.787 31.519-95.396 31.519h4.526c-45.486 0-83.517 10.424-95.273-31.519h2.314c-34.816 0-62.894-28.201-62.894-63.037v-68.772h186.88c4.547 8.212 9.687 16.2 15.319 23.675 32.133 41.677 82.534 69.038 139.203 69.038 56.648 0 107.049-27.341 139.182-69.038 5.755-7.475 10.895-15.462 15.442-23.675h186.88v68.772c-0.020 34.836-28.221 63.037-63.037 63.037zM608.338 497.664c-2.212 4.055-4.301 8.212-7.004 12.001-1.966 2.703-4.178 5.038-6.246 7.619-20.111 23.532-49.664 38.994-83.149 38.994-33.362 0-63.037-15.442-83.169-38.994-2.068-2.58-4.28-4.915-6.124-7.619-2.826-3.809-5.038-7.967-7.229-12.001-7.987-15.217-13.005-32.502-13.005-51.016 0-60.477 49.050-109.507 109.507-109.507s109.486 49.050 109.486 109.507c0.041 18.514-4.854 35.799-13.066 51.016zM680.182 493.343c4.157-14.95 7.107-30.392 7.107-46.694 0-96.645-78.602-175.247-175.35-175.247-96.768 0-175.37 78.602-175.37 175.247 0 16.302 3.072 31.744 7.107 46.694h-173.117v-228.188c0-34.836 28.078-63.037 62.894-63.037h556.995c34.816 0 63.017 28.201 63.017 63.037v228.188h-173.281z" />
<glyph unicode="&#xe910;" glyph-name="Icon_profile" d="M511.939 821.637c-206.377 0-373.494-167.465-373.494-373.637 0-147.169 84.992-274.207 208.486-335.34 49.93-24.33 105.718-38.298 165.007-38.298 59.146 0 115.22 13.947 165.007 38.298 123.556 61.133 208.609 188.17 208.609 335.34 0 206.172-167.465 373.637-373.617 373.637zM511.939 650.547c54.17 0 97.997-43.766 97.997-97.915 0-54.026-43.827-98.058-97.997-98.058-54.211 0-98.058 44.032-98.058 98.058-0.020 54.149 43.827 97.915 98.058 97.915zM511.939 113.951c-60.232 0-116.593 15.872-165.417 43.766v154.337c0 65.167 52.797 118.026 117.883 118.026h94.986c65.024 0 118.026-52.859 118.026-118.026v-154.337c-48.906-27.894-105.37-43.766-165.478-43.766z" />
<glyph unicode="&#xe911;" glyph-name="Icon_read" d="M634.184 491.377c23.101-55.685 0.635-123.064-51.999-157.348-52.511-34.284-123.372-25.948-167.014 19.64-44.339 46.244-49.398 117.125-12.165 169.124 37.007 51.528 103.813 66.99 153.825 45.998-14.541-13.066-22.815-28.59-21.156-48.23 1.229-14.070 7.107-26.112 17.551-35.594 23.122-21.484 51.814-19.251 80.957 6.41zM511.16 717.251h-0.471c-246.518 0-417.608-270.316-418.386-271.77 0.799-1.413 171.868-271.749 418.386-271.749h0.471c246.518 0 417.567 270.316 418.365 271.749-0.778 1.454-171.848 271.77-418.365 271.77zM510.935 238.244c-114.401 0.143-207.114 92.918-207.114 207.34 0 114.442 92.713 207.196 207.114 207.319 114.401-0.123 207.114-92.877 207.114-207.319 0-114.422-92.713-207.196-207.114-207.34zM105.923 445.44l0.041 0.061-0.041 0.082zM917.402 445.501l0.041-0.061v0.143z" />
<glyph unicode="&#xe912;" glyph-name="Icon_recommend" d="M260.874 199.721c30.925 0 68.854 0 98.509 0 0 113.009 0 208.691 0 318.71-48.927 0-106.844 0-157.184 0 19.866-112.251 39.199-208.773 58.675-318.71zM847.319 509.768c-2.007 5.222-5.448 8.151-9.933 10.138-2.314 1.024-4.854 1.884-7.782 2.499-11.715 2.417-38.646 5.325-38.646 5.325l-112.189 8.192c-5.837 1.884-11.592 3.912-17.367 6.144-0.717 1.823-1.229 4.076-1.475 7.148-0.205 2.15-0.43 4.362-0.266 6.472 2.376 24.535 29.512 67.543 32.010 92.078 1.208 11.592 3.564 23.163 3.707 34.796 0.102 6.861-0.676 13.763-1.659 20.664-0.041 19.968-5.919 38.318-17.203 54.641-0.655 0.942-1.72 1.679-2.519 2.601-0.369 0.43-0.553 0.922-0.881 1.372-1.249 1.495-2.724 2.54-4.116 3.83-0.676 0.676-1.393 1.413-2.109 2.028-2.171 1.679-4.526 3.052-6.779 4.506-1.29 0.799-2.519 1.782-3.809 2.519-2.949 1.659-6.246 2.109-9.523 1.7-5.038 0.553-10.117 0.492-15.299-0.963-10.772-3.092-18.637-9.728-23.040-19.026-2.028-4.239-3.543-8.868-3.891-14.254-1.229-18.493-1.843-37.11-1.27-55.603 0.389-12.349-2.171-22.917-8.294-33.731-1.782-3.195-3.932-6.697-6.083-10.138-9.912-16.261-22.753-34.816-35.799-53.596-11.162-17.326-101.888-71.455-119.357-85.279-10.117-8.049-25.129-18.883-25.539-28.856-1.659-51.753-1.577-103.526-0.901-155.32 0.123-8.888 0.164-17.797 0.348-26.685l11.633-45.691c2.458-2.437 5.018-4.608 7.598-5.98 31.334-17.142 63.427-31.232 97.382-38.912 23.962-5.427 48.804-7.721 75.1-5.263 41.902 3.871 84.337 0.696 126.546 0.737 3.072 0 5.878 0.061 8.724 0.102l30.29-0.635c1.72 0 3.85 0.123 5.14 1.044 1.741 1.167 3.256 2.478 4.854 3.727 8.663 6.84 15.217 15.258 17.51 26.788 2.908 14.664 0.123 24.515-7.127 36.925-1.987 3.338-10.609 10.117-12.882 13.64 3.727 1.741 15.503 4.936 18.493 6.861 6.922 4.444 10.588 6.185 16.65 11.694 11.141 10.22 13.435 23.798 6.554 36.884-3.297 6.103-3.85 5.775-8.090 11.407-1.126 1.475-12.493 8.724-14.336 10.568 8.643 4.076 21.955 8.458 27.955 14.643 5.366 5.55 9.462 12.165 11.284 20.726 3.809 17.551-3.604 33.198-14.111 48.333 5.243 3.4 13.64 5.96 18.125 9.298 7.823 5.816 14.52 12.902 16.241 22.794 2.314 12.575 0.778 25.108-3.871 37.11z" />
<glyph unicode="&#xe913;" glyph-name="Icon_cancel" d="M793.313 728.596c-14.193 14.111-37.069 14.152-51.077 0.041l-230.277-230.195-230.277 230.195c-13.926 14.070-36.782 14.070-51.077-0.041-14.090-14.152-14.090-36.966 0-51.118l230.195-230.175-230.195-230.195c-14.090-14.090-14.090-37.028 0-51.118 14.295-14.152 37.151-14.152 51.077 0l230.277 230.216 230.277-230.216c14.029-14.152 36.884-14.152 51.077 0 14.090 14.090 14.090 37.048 0 51.016l-230.257 230.298 230.257 230.175c14.090 14.152 14.090 36.966 0 51.118z" />
<glyph unicode="&#xe914;" glyph-name="icon_downvote" d="M504.525 272.835l-262.144 232.284c-15.442 13.763-16.978 37.458-3.236 52.92 13.824 15.442 37.458 16.957 52.982 3.154l212.398-188.211 205.988 182.497c15.503 13.722 39.178 12.288 52.9-3.236 13.722-15.483 12.37-39.219-3.195-52.9l-255.693-226.509z" />
<glyph unicode="&#xe915;" glyph-name="icon_dropdrown" d="M747.622 539.689h-471.88l235.93-235.889z" />
<glyph unicode="&#xe916;" glyph-name="icon_reply" d="M336.015 385.884c-9.81 0-19.558 3.727-26.911 11.141-14.93 14.93-14.93 39.096 0 53.985 136.499 136.561 358.83 136.561 495.329 0 14.93-14.889 14.93-39.055 0-53.985-14.93-14.889-39.076-14.889-53.924 0-106.926 106.885-280.719 106.803-387.502 0-7.475-7.434-17.162-11.141-26.993-11.141zM471.9 318.915h-202.854c-21.053 0-38.154 17.080-38.154 38.134v202.936c0 21.053 17.101 38.154 38.154 38.154 21.033 0 38.175-17.101 38.175-38.154v-164.844h164.68c21.033 0 38.195-17.060 38.195-38.093 0-21.053-17.162-38.134-38.195-38.134z" />
<glyph unicode="&#xe917;" glyph-name="icon_report_flag" d="M754.074 414.72c-13.844-2.007-26.808-4.239-39.813-5.612-37.028-4.055-72.172 4.628-107.151 14.95-25.539 7.537-50.545 16.589-76.145 23.572-35.84 9.728-72.417 13.332-108.81 3.768-11.715-2.99-22.671-9.011-34.017-13.578-0.676-0.348-1.434-0.758-2.765-1.434 0 15.442 0 30.208 0 45.076 0 62.136 0.082 124.314-0.287 186.593 0 5.714 2.13 8.52 7.127 10.67 15.073 6.615 30.884 10.097 47.043 11.489 41.882 3.809 81.715-3.564 120.115-19.866 27.73-11.715 56.75-13.292 86.241-11.776 35.922 1.761 71.004 8.438 105.677 17.879 0.963 0.143 1.925 0.246 4.198 0.614-1.249-3.768-2.007-6.963-3.154-10.056-8.192-20.296-21.033-37.642-35.635-53.33-20.951-22.548-43.028-44.114-64.922-65.618-4.157-4.096-5.632-6.758-3.113-12.472 18.596-42.312 44.36-79.053 82.35-106.168 7.025-5.12 14.541-9.257 23.060-14.705zM320.758 690.033c12.554 0 24.863 0 37.519 0 0-173.527 0-311.562 0-485.233-12.472 0-24.76 0-37.519 0 0 173.588 0 311.501 0 485.233z" />
<glyph unicode="&#xe918;" glyph-name="icon_send" d="M287.089 711.639l29.082-236.38 322.396-27.996-322.396-27.935-29.082-236.401 572.436 264.335z" />
<glyph unicode="&#xe919;" glyph-name="icon_text_bold" d="M332.206 665.19h196.014c20.193 0 38.994-2.048 56.34-6.144 17.326-4.096 32.379-10.609 45.158-19.599 12.759-9.011 22.753-20.603 30.044-34.877 7.27-14.275 10.916-31.457 10.916-51.63 0-21.77-5.059-40.202-15.032-55.276-10.035-15.012-24.33-27.054-42.885-35.922 52.695-14.889 79.032-49.5 79.032-103.916 0-14.766-1.925-28.16-5.796-40.202-3.85-12.042-9.216-22.897-16.159-32.44-6.799-9.564-14.991-17.879-24.412-24.76-9.4-6.943-19.743-12.78-30.986-17.367-11.244-4.526-23.040-8.008-35.43-10.301-12.493-2.232-25.088-3.42-37.847-3.42h-208.957v435.855zM418.099 484.106h104.366c9.339 0 18.022 1.249 26.051 3.666 8.008 2.417 14.93 6.001 20.644 10.854 5.837 4.772 10.342 10.732 13.722 17.818 3.318 7.127 4.997 15.258 4.997 24.494 0 10.486-2.048 19.231-6.083 26.255-4.137 7.066-9.523 12.657-16.302 16.937-6.717 4.219-14.459 7.209-23.265 8.991-8.786 1.741-17.838 2.601-27.075 2.601h-97.055v-111.616zM418.099 298.66h110.121c10.424 0 20.296 1.126 29.573 3.42 9.421 2.294 17.633 5.837 24.719 10.711 7.127 4.895 12.8 11.305 17.019 19.292 4.28 8.008 6.328 17.613 6.328 29.041 0 11.1-1.823 20.787-5.489 28.979-3.768 8.131-8.97 14.889-15.626 20.214-6.656 5.407-14.664 9.318-23.9 11.858-9.277 2.56-19.64 3.85-30.822 3.85h-111.944v-127.365z" />
<glyph unicode="&#xe91a;" glyph-name="icon_text_center" d="M284.14 666.788h455.68v-56.648h-455.68v56.648zM284.14 348.447h455.68v-56.648h-455.68v56.648zM398.049 507.617h227.84v-56.668h-227.84v56.668z" />
<glyph unicode="&#xe91b;" glyph-name="icon_text_italic" d="M370.115 240.62c2.273 20.193 2.294 20.091 20.828 21.565 7.987 0.635 16.036 1.311 23.9 2.806 17.326 3.277 28.754 13.025 32.85 30.822 21.012 91.3 42.168 182.518 63.222 273.756 3.809 16.343 7.68 32.686 11.182 49.091 3.174 15.012-0.983 23.142-15.462 27.976-13.005 4.342-26.501 7.25-40.55 10.977 1.311 5.919 2.765 12.349 4.219 18.862 65.782 0 130.99 0 196.157 0 0.082-0.942 0.225-1.434 0.164-1.884-2.417-16.978-2.417-16.896-19.19-19.354-8.663-1.29-17.285-2.99-25.928-4.444-17.859-3.011-28.426-13.558-32.481-31.048-12.39-53.166-24.883-106.312-37.233-159.498-12.431-53.412-24.76-106.865-37.151-160.297-4.157-17.94 1.638-27.689 19.64-32.379 6.042-1.577 12.206-2.847 18.33-3.973 5.878-1.085 11.796-1.782 17.49-2.601 0.328-0.983 0.696-1.495 0.594-1.905-3.871-18.35-3.871-18.452-22.876-18.493-57.242-0.041-114.524 0.020-171.786 0.020-1.761 0-3.482 0-5.919 0z" />
<glyph unicode="&#xe91c;" glyph-name="icon_text_left" d="M297.452 666.808h455.68v-56.668h-455.68v56.668zM297.452 507.638h340.48v-56.689h-340.48v56.689zM297.452 348.488h227.84v-56.689h-227.84v56.689z" />
<glyph unicode="&#xe91d;" glyph-name="icon_text_underline" d="M582.472 691.364v-217.702c0-12.308-1.229-23.511-3.645-33.382-2.355-9.523-6.267-17.756-11.653-24.474-5.325-6.636-12.493-11.796-21.32-15.36-9.032-3.666-20.48-5.53-34.017-5.53-10.281 0-19.272 1.126-26.706 3.338-7.332 2.171-13.64 5.222-18.739 8.97-5.079 3.789-9.277 8.192-12.431 13.128-3.277 5.079-5.878 10.609-7.741 16.384-1.905 5.857-3.195 11.96-3.85 18.145-0.655 6.287-1.004 12.595-1.004 18.78v217.702h-75.796v-217.702c0-23.757 3.318-44.769 9.851-62.423 6.595-17.797 16.282-32.85 28.836-44.687 12.513-11.796 28.078-20.726 46.223-26.563 17.94-5.734 38.584-8.643 61.358-8.643 22.548 0 43.069 2.908 61.010 8.643 18.166 5.837 33.792 14.807 46.49 26.644 12.718 11.878 22.528 26.911 29.184 44.769 6.595 17.654 9.933 38.605 9.933 62.259v217.702h-75.981zM365.568 291.226h292.884v-35.758h-292.884v35.758z" />
<glyph unicode="&#xe91e;" glyph-name="icon_upvote" d="M508.785 596.91l262.144-232.223c15.483-13.824 16.916-37.458 3.195-53.023-13.722-15.38-37.396-16.916-52.879-3.092l-212.46 188.191-205.947-182.436c-15.524-13.763-39.158-12.288-52.961 3.195-13.742 15.483-12.308 39.219 3.236 52.9l255.672 226.488z" />
<glyph unicode="&#xe91f;" glyph-name="Icon_already_in__mylibrary" d="M225.628 755.487c0 8.212 6.676 14.889 14.889 14.889h50.442c8.233 0 14.909-6.656 14.909-14.889v-614.666c0-8.212-6.656-14.889-14.909-14.889h-50.442c-8.192 0-14.889 6.656-14.889 14.889v614.666zM459.796 200.417c0 149.115 120.852 269.967 269.967 269.967 25.702 0 50.442-3.809 73.974-10.527v295.629c0 8.212-6.656 14.889-14.889 14.889h-420.311c-8.192 0-14.889-6.656-14.889-14.889v-614.666c0-8.212 6.676-14.889 14.889-14.889h101.908c-6.779 23.695-10.65 48.62-10.65 74.486zM651.51 90.132l-86.487 86.446c-12.718 12.698-12.718 33.362 0 46.080 12.739 12.759 33.362 12.759 46.121 0l40.366-40.325 141.435 141.435c12.759 12.759 33.403 12.759 46.121 0 12.739-12.718 12.739-33.341 0-46.039l-187.556-187.597z" />
<glyph unicode="&#xe920;" glyph-name="Icon_hamburger_menu" d="M852.009 668.59c0-20.623-17.203-37.417-38.236-37.417h-603.607c-20.931 0-38.175 16.794-38.175 37.417v0c0 20.869 17.244 37.601 38.175 37.601h603.607c21.033-0.020 38.236-16.753 38.236-37.601v0zM852.009 448.451c0-20.562-17.203-37.376-38.236-37.376h-603.607c-20.931 0-38.175 16.814-38.175 37.376v0c0 20.685 17.244 37.376 38.175 37.376h603.607c21.033 0.020 38.236-16.691 38.236-37.376v0zM852.009 228.332c0-20.439-17.203-37.437-38.236-37.437h-603.607c-20.931 0-38.175 16.998-38.175 37.437v0c0 20.562 17.244 37.212 38.175 37.212h603.607c21.033 0.020 38.236-16.65 38.236-37.212v0z" />
<glyph unicode="&#xe921;" glyph-name="Icon_confirm" d="M370.422 175.206l449.004 449.024c13.947 13.926 13.947 36.639 0 50.586-13.967 13.988-36.598 13.988-50.545 0l-398.459-398.438-116.449 116.449c-13.967 13.947-36.598 13.947-50.565 0-13.988-14.049-13.988-36.639 0-50.586l167.014-167.035z" />
<glyph unicode="&#xe922;" glyph-name="Icon_photo_zoom_fit" d="M737.321 534.18c-20.439 0-37.192 16.691-37.192 37.315v73.298h-73.318c-20.685 0-37.396 16.712-37.396 37.335 0 20.562 16.712 37.212 37.396 37.212h110.51c20.562 0 37.315-16.65 37.315-37.212v-110.633c0-20.623-16.753-37.315-37.315-37.315zM286.556 534.18c-20.521 0-37.151 16.691-37.151 37.315v110.633c0 20.562 16.65 37.212 37.151 37.212h110.674c20.603 0 37.356-16.65 37.356-37.212 0-20.623-16.753-37.335-37.356-37.335h-73.155v-73.298c0-20.623-16.753-37.315-37.519-37.315zM397.23 194.109h-110.674c-20.521 0-37.151 16.753-37.151 37.253v110.633c0 20.541 16.65 37.315 37.151 37.315 20.767 0 37.519-16.773 37.519-37.315v-73.318h73.155c20.603 0 37.356-16.712 37.356-37.315 0.020-20.5-16.753-37.253-37.356-37.253zM737.321 194.109h-110.51c-20.685 0-37.396 16.753-37.396 37.253 0 20.603 16.712 37.315 37.396 37.315h73.318v73.318c0 20.541 16.753 37.315 37.192 37.315 20.562 0 37.315-16.773 37.315-37.315v-110.633c0-20.5-16.753-37.253-37.315-37.253z" />
<glyph unicode="&#xe923;" glyph-name="Icon_photo_zoom_in" d="M808.673 731.341h-68.342v68.26c0 12.534-10.199 22.774-22.61 22.774-12.575 0-22.835-10.24-22.835-22.774v-68.26h-68.403c-12.595 0-22.774-10.281-22.774-22.794 0-12.636 10.199-22.835 22.774-22.835h68.403v-68.28c0-12.575 10.24-22.774 22.835-22.774 12.411 0 22.61 10.199 22.61 22.774v68.28h68.342c12.534 0 22.835 10.199 22.835 22.835 0.020 12.513-10.281 22.794-22.835 22.794zM706.765 259.564l-79.995 79.995c22.835 32.604 36.168 71.926 36.168 114.606 0 110.326-89.641 199.987-199.967 199.987s-200.090-89.661-200.090-199.987c0-110.387 89.764-200.090 200.090-200.090 36.127 0 70.185 9.871 99.594 26.849l82.76-82.842c8.561-8.438 19.681-12.718 30.74-12.718 11.182 0 22.303 4.28 30.7 12.718 16.916 16.998 16.916 44.544 0 61.481zM349.88 454.164c0 62.362 50.668 113.070 113.070 113.070 62.382 0 113.091-50.729 113.091-113.070s-50.708-113.234-113.091-113.234c-62.403-0.020-113.070 50.872-113.070 113.234z" />
<glyph unicode="&#xe924;" glyph-name="Icon_photo_zoom_out" d="M796.242 708.567c0 12.513-10.097 22.774-22.733 22.774h-182.252c-12.636 0-22.712-10.26-22.712-22.774 0-12.636 10.076-22.835 22.712-22.835h91.177c12.636 0 22.671 0 22.671 0h68.383c12.657-0.020 22.753 10.179 22.753 22.835zM671.478 259.625l-79.933 79.933c22.835 32.584 36.25 71.946 36.25 114.627 0 110.264-89.661 199.967-200.049 199.967-110.285 0-199.987-89.702-199.987-199.967 0-110.387 89.702-200.11 199.987-200.11 36.168 0 70.124 9.851 99.738 26.808l82.555-82.78c8.745-8.438 19.681-12.739 30.802-12.739 11.223 0 22.344 4.301 30.638 12.739 17.039 16.978 17.039 44.564 0 61.522zM314.47 454.185c0 62.423 50.872 113.070 113.254 113.070 62.484 0 113.132-50.668 113.132-113.070 0-62.382-50.668-113.295-113.132-113.295-62.362 0-113.254 50.913-113.254 113.295z" />
<glyph unicode="&#xe925;" glyph-name="icon_indent" d="M528.855 551.69c-9.257 10.547-26.747 11.715-37.458 2.314-10.936-9.687-11.94-26.481-2.273-37.437l37.11-41.902h-260.813c-14.725 0-26.665-11.94-26.665-26.665 0-14.746 11.94-26.685 26.665-26.685h258.499l-36.905-41.595c-9.667-10.875-8.684-27.709 2.253-37.478 4.833-4.28 11.080-6.636 17.551-6.636 7.578 0 14.807 3.236 19.907 8.929l92.836 104.796-90.706 102.359zM694.886 652.636h57.733v-409.272h-57.733v409.272z" />
<glyph unicode="&#xe926;" glyph-name="Icon_question" d="M510.856 313.113c-7.007 0-14.015-0.1-21.002 0.040-10.481 0.201-20.4 8.433-20.741 18.613-0.683 20.279-1.606 40.619 2.329 60.717 3.835 19.617 13.091 36.402 27.427 50.337 16.203 15.721 32.587 31.302 48.791 47.004 14.537 14.075 27.869 29.134 36.503 47.686 18.693 40.177-3.534 94.188-53.79 102.5-44.132 7.329-81.177-17.669-91.899-61.721-0.482-2.048-0.944-4.096-1.667-6.084-3.755-10.3-10.983-14.958-21.906-13.934-16.886 1.546-33.772 3.213-50.638 5-11.324 1.185-17.729 11.103-14.697 23.853 15.039 63.307 53.268 105.472 116.294 122.699 45.197 12.328 90.293 9.999 132.939-11.123 44.514-22.066 69.23-58.529 75.073-107.781 4.759-40.277-3.574-77.222-28.612-109.729-1.827-2.349-3.735-4.658-5.803-6.766-20.56-20.781-40.719-42.004-61.922-62.123-16.304-15.46-24.395-33.712-24.355-55.898 0-6.987-0.12-13.975-0.181-21.002-0.080-12.669-9.577-22.207-22.187-22.287-6.666-0.040-13.312 0-19.958 0zM510.313 178.668c-25.239-0.040-46.421 20.801-46.401 45.699 0 25.439 21.022 46.381 46.461 46.341 24.837-0.060 45.678-21.002 45.739-45.879 0.040-25.439-20.46-46.12-45.799-46.16z" />
<glyph unicode="&#xe927;" glyph-name="Icon_star" d="M511.918 787.374l80.159-246.374h258.99l-209.551-152.248 79.995-246.374-209.592 152.269-209.449-152.269 79.913 246.374-209.449 152.248h258.949z" />
<glyph unicode="&#xe928;" glyph-name="Icon_edit" d="M260.977 191.939c3.994 11.428 8.151 22.815 12.042 34.324 11.796 35.123 23.45 70.287 35.287 105.39 0.881 2.58 2.355 5.222 4.26 7.148 89.784 89.928 179.651 179.753 269.496 269.619 0.963 0.942 1.966 1.823 2.56 2.396 32.358-32.379 64.594-64.655 97.157-97.3-0.594-0.635-1.761-1.987-2.99-3.236-89.354-89.375-178.77-178.77-268.206-268.083-2.15-2.13-4.997-3.953-7.885-4.915-45.056-15.196-90.194-30.249-135.311-45.343-1.516-0.492-2.929-1.331-4.403-2.028-0.676 0.696-1.352 1.352-2.007 2.028zM714.936 546.857c-32.358 32.399-64.635 64.676-97.239 97.3 6.246 6.205 12.759 12.657 19.231 19.169 9.953 9.933 19.886 19.948 29.88 29.819 15.442 15.258 37.048 15.34 52.408 0.123 15.196-15.094 30.351-30.269 45.486-45.466 13.844-13.947 15.073-35.287 1.761-49.398-16.527-17.551-33.956-34.243-50.995-51.302-0.205-0.225-0.614-0.287-0.532-0.246z" />
<glyph unicode="&#xe929;" glyph-name="Icon_stat" d="M233.513 560.456c0 5.366 4.342 9.708 9.708 9.708h91.013c5.345 0 9.667-4.342 9.667-9.708v-325.448c0-5.345-4.321-9.687-9.667-9.687h-91.013c-5.366 0-9.708 4.342-9.708 9.687v325.448zM381.399 709.222c0 5.345 4.301 9.667 9.687 9.667h90.972c5.366 0 9.728-4.321 9.728-9.667v-474.194c0-5.345-4.362-9.687-9.728-9.687h-90.972c-5.386 0-9.687 4.342-9.687 9.687v474.194zM529.244 634.675c0 5.386 4.321 9.728 9.687 9.728h91.013c5.345 0 9.667-4.342 9.667-9.728v-399.667c0-5.345-4.321-9.687-9.667-9.687h-91.013c-5.366 0-9.687 4.342-9.687 9.687v399.667zM677.13 709.222c0 5.345 4.321 9.667 9.687 9.667h90.993c5.366 0 9.687-4.321 9.687-9.667v-474.194c0-5.345-4.321-9.687-9.687-9.687h-90.993c-5.366 0-9.687 4.342-9.687 9.687v474.194z" />
<glyph unicode="&#xe92a;" glyph-name="Icon_font_size" d="M339.067 662.712h90.604l139.428-372.572h-91.914l-28.262 82.698h-132.096c-1.638-4.608-3.359-9.482-5.079-14.602-1.72-5.1-3.768-10.916-6.083-17.428-2.273-6.472-4.895-13.824-7.762-22.036-2.888-8.233-6.246-17.797-10.117-28.631h-90.194l141.476 372.572zM334.582 428.995h96.358l-46.94 140.124-49.418-140.124zM691.896 551.076h63.447l97.649-260.936h-64.369l-19.804 57.917h-92.529c-1.126-3.215-2.314-6.636-3.523-10.22-1.249-3.564-2.642-7.66-4.239-12.206-1.638-4.547-3.482-9.687-5.489-15.442s-4.362-12.452-7.086-20.050h-63.16l99.103 260.936zM688.742 387.379h67.523l-32.911 98.14-34.611-98.14z" />
<glyph unicode="&#xe92b;" glyph-name="Icon_back" d="M342.61 444.805l232.243 262.144c13.804 15.483 37.437 16.916 53.002 3.195 15.401-13.722 16.916-37.396 3.092-52.9l-188.191-212.439 182.436-205.947c13.783-15.524 12.308-39.158-3.174-52.982-15.503-13.722-39.24-12.288-52.9 3.236l-226.509 255.693z" />
<glyph unicode="&#xe92c;" glyph-name="Icon_forward" d="M681.39 451.215l-232.243-262.144c-13.804-15.483-37.437-16.916-53.002-3.195-15.401 13.722-16.916 37.396-3.092 52.9l188.191 212.439-182.436 205.947c-13.783 15.524-12.308 39.158 3.174 52.982 15.503 13.722 39.24 12.288 52.9-3.236l226.509-255.693z" />
<glyph unicode="&#xe92d;" glyph-name="Icon_quote" d="M652.493 300.052c-32.993 0-62.689 0-95.928 0 14.152 108.196 28.037 214.446 42.209 322.601 41.001 0 80.527 0 124.928 0-23.962-108.483-47.636-215.757-71.209-322.601zM409.682 300.134c-32.297 0-61.911 0-95.703 0 14.029 108.319 27.771 214.528 41.759 322.54 41.738 0 80.978 0 125.010 0-24.064-109.302-47.555-215.88-71.066-322.54z" />
<glyph unicode="&#xe92e;" glyph-name="Icon_add" d="M817.541 484.844l-267.182 0.020 0.061 267.735c-0.020 20.644-16.835 37.458-37.478 37.478-10.056-0.020-19.476-3.912-26.563-10.977-7.086-7.086-10.977-16.486-10.957-26.481l-0.061-267.694-251.023-0.082c-20.439 0-37.171-16.814-37.315-37.54 0.041-20.603 16.855-37.417 37.499-37.458h250.819l0.020-266.424c-0.020-9.994 3.85-19.395 10.936-26.501s16.527-11.018 26.563-11.018v0c10.199 0.041 19.722 4.014 26.808 11.223 6.963 7.066 10.752 16.425 10.67 26.276l0.020 266.486h267.244c20.603 0 37.396 16.814 37.437 37.499-0.041 20.664-16.773 37.458-37.499 37.458z" />
<glyph unicode="&#xe92f;" glyph-name="Icon_helpful_no" d="M260.874 746.947c30.904 0 68.833 0 98.488 0 0-113.029 0-208.691 0-318.73-48.927 0-106.844 0-157.184 0 19.866 112.251 39.178 208.794 58.696 318.73zM847.299 436.9c-2.007-5.243-5.448-8.151-9.933-10.117-2.314-1.044-4.854-1.884-7.782-2.519-11.694-2.396-38.646-5.325-38.646-5.325l-112.189-8.192c-5.816-1.884-11.612-3.891-17.367-6.124-0.696-1.843-1.229-4.076-1.495-7.168-0.184-2.15-0.43-4.362-0.246-6.472 2.376-24.515 29.512-67.523 32.010-92.058 1.229-11.571 3.543-23.163 3.707-34.775 0.102-6.881-0.676-13.763-1.659-20.685-0.041-19.968-5.919-38.318-17.224-54.641-0.635-0.963-1.72-1.679-2.519-2.601-0.328-0.43-0.532-0.922-0.86-1.352-1.229-1.516-2.703-2.56-4.096-3.85-0.676-0.676-1.413-1.393-2.13-2.028-2.171-1.679-4.526-3.052-6.799-4.506-1.29-0.799-2.519-1.802-3.789-2.519-2.949-1.638-6.267-2.089-9.523-1.679-5.038-0.553-10.117-0.492-15.299 0.963-10.772 3.092-18.637 9.728-23.040 19.046-2.007 4.239-3.543 8.847-3.891 14.234-1.229 18.493-1.843 37.13-1.27 55.603 0.41 12.37-2.15 22.917-8.294 33.731-1.782 3.174-3.932 6.697-6.062 10.138-9.953 16.261-22.753 34.796-35.799 53.576-11.203 17.326-101.929 71.455-119.357 85.258-10.158 8.049-25.17 18.903-25.559 28.856-1.638 51.732-1.556 103.547-0.901 155.341 0.123 8.888 0.184 17.777 0.348 26.685l11.633 45.67c2.478 2.437 5.038 4.608 7.598 6.001 31.355 17.162 63.447 31.232 97.403 38.912 23.941 5.407 48.804 7.721 75.080 5.263 41.902-3.871 84.337-0.696 126.566-0.737 3.052 0 5.837-0.041 8.704-0.102l30.29 0.635c1.72-0.020 3.809-0.123 5.12-1.044 1.741-1.167 3.256-2.458 4.854-3.748 8.663-6.84 15.217-15.237 17.51-26.788 2.908-14.664 0.123-24.515-7.127-36.946-1.987-3.318-10.588-10.097-12.861-13.64 3.707-1.72 15.483-4.915 18.473-6.84 6.922-4.444 10.568-6.205 16.65-11.715 11.162-10.199 13.435-23.798 6.554-36.884-3.277-6.124-3.85-5.775-8.090-11.407-1.126-1.475-12.513-8.724-14.356-10.568 8.643-4.076 21.975-8.479 27.976-14.664 5.386-5.55 9.462-12.165 11.305-20.726 3.809-17.531-3.604-33.178-14.131-48.333 5.222-3.4 13.66-5.939 18.125-9.277 7.823-5.816 14.52-12.902 16.241-22.794 2.335-12.575 0.778-25.088-3.85-37.089z" />
<glyph unicode="&#xe930;" glyph-name="Icon_helpful_yes" d="M260.895 199.721c30.904 0 68.854 0 98.488 0 0 113.029 0 208.691 0 318.73-48.927 0-106.844 0-157.184 0 19.866-112.251 39.199-208.814 58.696-318.73zM847.319 509.768c-2.007 5.243-5.448 8.151-9.933 10.117-2.314 1.044-4.854 1.884-7.782 2.519-11.715 2.396-38.646 5.325-38.646 5.325l-112.189 8.192c-5.837 1.884-11.612 3.891-17.367 6.124-0.717 1.843-1.229 4.076-1.495 7.168-0.184 2.15-0.43 4.362-0.246 6.472 2.376 24.515 29.512 67.523 32.010 92.058 1.208 11.571 3.543 23.163 3.707 34.775 0.102 6.881-0.676 13.763-1.659 20.685-0.041 19.968-5.919 38.318-17.203 54.641-0.655 0.963-1.72 1.679-2.519 2.601-0.348 0.43-0.553 0.922-0.86 1.352-1.229 1.516-2.703 2.56-4.116 3.85-0.676 0.676-1.413 1.393-2.109 2.028-2.171 1.679-4.526 3.052-6.799 4.506-1.29 0.799-2.519 1.802-3.789 2.519-2.949 1.638-6.246 2.089-9.523 1.679-5.038 0.553-10.117 0.492-15.299-0.963-10.772-3.092-18.637-9.728-23.040-19.046-2.007-4.239-3.543-8.847-3.891-14.234-1.229-18.493-1.843-37.13-1.27-55.603 0.389-12.37-2.171-22.917-8.294-33.731-1.782-3.174-3.932-6.697-6.062-10.138-9.933-16.261-22.753-34.796-35.799-53.576-11.182-17.326-101.908-71.455-119.357-85.258-10.138-8.049-25.149-18.903-25.559-28.856-1.659-51.732-1.577-103.547-0.901-155.341 0.123-8.888 0.164-17.777 0.348-26.685l11.633-45.67c2.478-2.437 5.038-4.608 7.598-6.001 31.355-17.162 63.427-31.232 97.382-38.912 23.941-5.407 48.804-7.721 75.1-5.263 41.902 3.871 84.337 0.696 126.546 0.737 3.072 0 5.857 0.041 8.704 0.102l30.29-0.635c1.72 0.020 3.83 0.123 5.12 1.044 1.741 1.167 3.256 2.458 4.854 3.748 8.663 6.84 15.217 15.237 17.51 26.788 2.908 14.664 0.123 24.515-7.127 36.946-1.987 3.318-10.588 10.097-12.861 13.64 3.707 1.72 15.483 4.915 18.493 6.84 6.922 4.444 10.568 6.205 16.65 11.715 11.141 10.199 13.435 23.798 6.554 36.884-3.297 6.124-3.85 5.775-8.090 11.407-1.126 1.475-12.513 8.724-14.356 10.568 8.643 4.076 21.975 8.479 27.976 14.664 5.366 5.55 9.462 12.165 11.284 20.726 3.809 17.531-3.604 33.178-14.131 48.333 5.222 3.4 13.66 5.939 18.125 9.277 7.823 5.816 14.52 12.902 16.241 22.794 2.335 12.554 0.778 25.088-3.85 37.089z" />
<glyph unicode="&#xe931;" glyph-name="Icon_create" d="M661.361 755.2h-298.742c-87.142 0-157.819-70.554-157.819-157.737v-298.844c0-87.224 70.676-157.819 157.819-157.819h298.742c87.142 0 157.839 70.595 157.839 157.819v298.844c0 87.183-70.697 157.737-157.839 157.737zM592.036 420.721l-163.533-162.222-134.042-29.286 28.262 135.168 163.267 162.263 142.008 141.988c0 0 30.454 6.738 71.045-33.772 40.55-41.677 34.836-72.212 34.836-72.212l-141.844-141.926zM351.949 368.906l-12.349-13.496-10.199-45.076c7.926-4.526 16.916-10.138 25.928-19.21 10.158-10.035 15.79-18.002 20.255-26.911l45.138 10.076 13.476 13.558c0 0-1.208 24.719-29.286 53.002-27.136 28.058-52.961 28.058-52.961 28.058z" />
<glyph unicode="&#xe932;" glyph-name="icon_follow" d="M401.789 234.104c23.512 23.512 23.512 61.601 0 85.112-23.512 23.532-61.661 23.532-85.133 0-23.512-23.512-23.512-61.601 0-85.112 23.472-23.592 61.601-23.532 85.133 0zM744.368 203.003c-24.154 0-43.711 19.597-43.711 43.711 0 99.368-38.611 192.673-108.644 262.686-70.074 70.114-163.338 108.664-262.726 108.664-24.174 0-43.711 19.556-43.711 43.731 0 24.154 19.556 43.731 43.711 43.731 122.719 0 237.99-47.686 324.568-134.285 86.558-86.538 134.244-201.808 134.244-324.528-0.020-24.134-19.576-43.711-43.731-43.711zM569.605 203.003c-24.134 0-43.711 19.597-43.711 43.711 0 52.626-20.44 102.039-57.545 139.103-37.085 37.065-86.478 57.464-139.043 57.464h-0.020c-24.174 0-43.711 19.556-43.711 43.731-0.020 24.114 19.556 43.711 43.691 43.711h0.060c75.896 0 147.255-29.495 200.885-83.064 53.569-53.609 83.105-125.008 83.105-200.945-0.020-24.134-19.576-43.711-43.711-43.711z" />
</font>
</defs>
</svg>
